<?xml version="1.0" encoding="utf-8"?>
<!-- Generator: Adobe Illustrator 23.0.1, SVG Export Plug-In . SVG Version: 6.00 Build 0)  -->
<svg version="1.1" id="レイヤー_1" xmlns="http://www.w3.org/2000/svg" xmlns:xlink="http://www.w3.org/1999/xlink" x="0px"
	 y="0px" viewBox="0 0 72 72" style="enable-background:new 0 0 72 72;" xml:space="preserve">
<style type="text/css">
	.st0{fill:#9C8171;}
	.st1{fill:#6E5242;}
</style>
<path class="st0" d="M36,3c-5.3,0-9.7,4.4-9.7,9.7h3.2c0-3.6,2.9-6.5,6.5-6.5s6.5,2.9,6.5,6.5h3.2C45.7,7.4,41.3,3,36,3z"/>
<path class="st0" d="M52.2,67H19.8c-2.7,0-4.9-2.2-4.9-4.9V21.6H57v40.5C57.1,64.8,54.9,67,52.2,67z"/>
<path class="st1" d="M27.1,57.3L27.1,57.3c-1.3,0-2.4-1.1-2.4-2.4V29.7c0-1.3,1.1-2.4,2.4-2.4l0,0c1.3,0,2.4,1.1,2.4,2.4v25.1
	C29.5,56.2,28.4,57.3,27.1,57.3z"/>
<path class="st1" d="M44.9,57.3L44.9,57.3c-1.3,0-2.4-1.1-2.4-2.4V29.7c0-1.3,1.1-2.4,2.4-2.4l0,0c1.3,0,2.4,1.1,2.4,2.4v25.1
	C47.3,56.2,46.3,57.3,44.9,57.3z"/>
<path class="st1" d="M36,57.3L36,57.3c-1.3,0-2.4-1.1-2.4-2.4V29.8c0-1.3,1.1-2.4,2.4-2.4l0,0c1.3,0,2.4,1.1,2.4,2.4v25.1
	C38.4,56.2,37.3,57.3,36,57.3z"/>
<path class="st0" d="M54.6,11.1H17.4c-2.7,0-4.9,2.2-4.9,4.9v3.2h47V16C59.5,13.3,57.3,11.1,54.6,11.1z"/>
<path class="st1" d="M60.3,18.4H11.7c-0.9,0-1.6,0.7-1.6,1.6l0,0c0,0.9,0.7,1.6,1.6,1.6h48.6c0.9,0,1.6-0.7,1.6-1.6l0,0
	C61.9,19.1,61.2,18.4,60.3,18.4z"/>
</svg>
