<svg id="レイヤー_1" data-name="レイヤー 1" xmlns="http://www.w3.org/2000/svg" viewBox="0 0 24 24"><defs><style>.cls-1{fill:#485566;}</style></defs><title>svgアートボード 140</title><circle cx="12" cy="12" r="10.54"/><path id="delte" class="cls-1" d="M14.69,16.85h-.83V10.62H12.41v6.23h-.84V10.62H10.13v6.23H9.3V10.62H7.87v5.93a1.38,1.38,0,0,0,1.37,1.37h5.51a1.37,1.37,0,0,0,1.37-1.37V10.62H14.69Zm-.2-9v-.4a1.37,1.37,0,0,0-1.37-1.37H10.88A1.37,1.37,0,0,0,9.52,7.45v.4L7.36,8.3V9.74h9.28V8.3Zm-.75,0H10.26V7.66a1,1,0,0,1,1-1h1.57a1,1,0,0,1,1,1Z"/></svg>