<svg id="レイヤー_1" data-name="レイヤー 1" xmlns="http://www.w3.org/2000/svg" viewBox="0 0 54 54"><defs><style>.cls-1{opacity:0.3;}.cls-2{fill:#fff;}.cls-3{fill:blue;}</style></defs><title>svgアートボード 70</title><circle class="cls-1" cx="27" cy="27" r="24.75"/><path class="cls-2" d="M38.55,40.33A2.25,2.25,0,0,1,37,39.67l-1.5-1.5-.72.71a2.21,2.21,0,0,1-1.59.66h0a2.21,2.21,0,0,1-1.59-.66l-2-2-1.45,1.45a2.25,2.25,0,0,1-3.18,0l-1.49-1.49a2.25,2.25,0,0,1-.66-1.59,2.17,2.17,0,0,1,.17-.84l-8.31-8.3A7.29,7.29,0,1,1,25,15.81l8.3,8.3a2.27,2.27,0,0,1,2.44.5l1.48,1.48a2.25,2.25,0,0,1,.66,1.59,2.21,2.21,0,0,1-.66,1.59l-1.44,1.45,5.08,5.08a2.25,2.25,0,0,1,0,3.18l-.68.69a2.25,2.25,0,0,1-1.59.66Z"/><path class="cls-3" d="M25.39,33.67l-9.15-9.15a5,5,0,0,1,7.13-7.12l9.15,9.15Zm8.72-7.47L25,35.26l1.49,1.49,9.06-9.07Zm-4,8,3,3,.68-.68-3-3Zm3-3-.68.69,6.14,6.14.68-.69Z"/></svg>