<svg id="レイヤー_1" data-name="レイヤー 1" xmlns="http://www.w3.org/2000/svg" viewBox="0 0 120 64"><defs><style>.cls-1{opacity:0.3;}.cls-2{fill:blue;opacity:0.75;}.cls-3{fill:#e5e5e5;}</style></defs><title>svgアートボード 120</title><rect class="cls-1" x="10.92" y="9.09" width="98.16" height="46.79" rx="7.5"/><path class="cls-2" d="M18.42,9.09a7.52,7.52,0,0,0-7.5,7.5V48.38a7.52,7.52,0,0,0,7.5,7.5H45.11V9.09Z"/><path class="cls-3" d="M17.32,22.7h6.62c4.1,0,7.23,1.18,7.23,4.91a4.55,4.55,0,0,1-2.73,4.32v.13a4.56,4.56,0,0,1,3.76,4.73c0,4-3.35,5.88-7.75,5.88H17.32Zm6.32,8.12c2.54,0,3.64-1,3.64-2.62,0-1.75-1.18-2.45-3.59-2.45H21.32v5.07Zm.46,8.77c2.72,0,4.21-1,4.21-3.05s-1.46-2.75-4.21-2.75H21.32v5.8Z"/><path class="cls-3" d="M35.17,30.23a2.47,2.47,0,1,1,2.46,2.56A2.46,2.46,0,0,1,35.17,30.23Zm0,10.23a2.47,2.47,0,1,1,2.46,2.59A2.48,2.48,0,0,1,35.17,40.46Z"/></svg>