<svg id="レイヤー_1" data-name="レイヤー 1" xmlns="http://www.w3.org/2000/svg" viewBox="0 0 120 64"><defs><style>.cls-1{opacity:0.3;}.cls-2{fill:red;opacity:0.75;}.cls-3{fill:#e5e5e5;}</style></defs><title>svgアートボード 90</title><rect class="cls-1" x="10.92" y="9.09" width="98.16" height="46.79" rx="7.5"/><path class="cls-2" d="M18.42,9.09a7.52,7.52,0,0,0-7.5,7.5V48.38a7.52,7.52,0,0,0,7.5,7.5H45.11V9.09Z"/><path class="cls-3" d="M28.19,42.67l-4.11-7.56H21.3v7.56h-4v-20h7c4.19,0,7.51,1.45,7.51,6A5.71,5.71,0,0,1,28,34.49l4.67,8.18ZM21.3,32h2.6c2.56,0,4-1.08,4-3.21s-1.4-2.89-4-2.89H21.3Z"/><path class="cls-3" d="M35.18,30.23a2.47,2.47,0,1,1,2.46,2.56A2.47,2.47,0,0,1,35.18,30.23Zm0,10.23a2.47,2.47,0,1,1,2.46,2.59A2.48,2.48,0,0,1,35.18,40.46Z"/></svg>