<svg id="レイヤー_1" data-name="レイヤー 1" xmlns="http://www.w3.org/2000/svg" viewBox="0 0 120 64"><defs><style>.cls-1{opacity:0.3;}.cls-2{fill:lime;opacity:0.75;}.cls-3{fill:#e5e5e5;}</style></defs><title>svgアートボード 110</title><rect class="cls-1" x="10.92" y="9.09" width="98.16" height="46.79" rx="7.5"/><path class="cls-2" d="M18.42,9.09a7.52,7.52,0,0,0-7.5,7.5V48.38a7.52,7.52,0,0,0,7.5,7.5H45.11V9.09Z"/><path class="cls-3" d="M15.84,32.76c0-6.58,4.26-10.44,9.58-10.44a8.4,8.4,0,0,1,6.18,2.56l-2.13,2.54a5.23,5.23,0,0,0-3.91-1.67c-3.33,0-5.65,2.59-5.65,6.88s2,7,5.92,7a4.07,4.07,0,0,0,2.51-.75V34.9H24.8V31.63h7.1v9a9.42,9.42,0,0,1-6.48,2.4C20,43.05,15.84,39.43,15.84,32.76Z"/><path class="cls-3" d="M35.65,30.23a2.48,2.48,0,1,1,2.46,2.56A2.47,2.47,0,0,1,35.65,30.23Zm0,10.23a2.48,2.48,0,1,1,2.46,2.59A2.48,2.48,0,0,1,35.65,40.46Z"/></svg>