<svg id="レイヤー_1" data-name="レイヤー 1" xmlns="http://www.w3.org/2000/svg" viewBox="0 0 54 54"><defs><style>.cls-1{opacity:0.3;}.cls-2{fill:#fff;}</style></defs><title>svgアートボード 80</title><circle class="cls-1" cx="27" cy="27" r="24.75"/><path class="cls-2" d="M32.78,26.22A1.6,1.6,0,1,1,35,28.49l-.46.45h0a.87.87,0,0,0,0,1.24.84.84,0,0,0,.6.26h0a4.58,4.58,0,1,1-4.79,4.74h0a.89.89,0,0,0-.26-.6.87.87,0,0,0-1.24,0h0l-.46.46a1.6,1.6,0,1,1-2.25-2.27ZM19.26,14.4a2.47,2.47,0,0,1-3.5,0l-1.27,1.26a2.48,2.48,0,0,1,0,3.5l.11.23L26.35,31.26l4.91-4.86L19.49,14.52Z"/></svg>